STARTFONT 2.1
COMMENT
COMMENT Converted from OpenType font "Pixellari.ttf" by "otf2bdf 3.0".
COMMENT
FONT -FreeType-Pixellari-Medium-R-Normal--17-120-100-100-P-76-ISO10646-1
SIZE 12 100 100
FONTBOUNDINGBOX 17 17 -2 -4
STARTPROPERTIES 19
FOUNDRY "FreeType"
FAMILY_NAME "Pixellari"
WEIGHT_NAME "Medium"
SLANT "R"
SETWIDTH_NAME "Normal"
ADD_STYLE_NAME ""
PIXEL_SIZE 17
POINT_SIZE 120
RESOLUTION_X 100
RESOLUTION_Y 100
SPACING "P"
AVERAGE_WIDTH 76
CHARSET_REGISTRY "ISO10646"
CHARSET_ENCODING "1"
FONT_ASCENT 12
FONT_DESCENT 4
COPYRIGHT "ZaccharyDempseyP"
_OTF_FONTFILE "Pixellari.ttf"
_OTF_PSNAME "Pixellari"
ENDPROPERTIES
CHARS 319
STARTCHAR 0020
ENCODING 32
SWIDTH 300 0
DWIDTH 5 0
BBX 0 0 0 0
BITMAP
ENDCHAR
STARTCHAR 0021
ENCODING 33
SWIDTH 240 0
DWIDTH 4 0
BBX 2 12 1 0
BITMAP
C0
C0
C0
C0
C0
C0
C0
C0
C0
00
C0
C0
ENDCHAR
STARTCHAR 0022
ENCODING 34
SWIDTH 420 0
DWIDTH 7 0
BBX 5 5 1 7
BITMAP
D8
D8
D8
D8
D8
ENDCHAR
STARTCHAR 0023
ENCODING 35
SWIDTH 600 0
DWIDTH 10 0
BBX 9 13 0 0
BITMAP
6600
6600
6600
FF80
FF80
FF80
6600
6600
FF80
FF80
6600
6600
6600
ENDCHAR
STARTCHAR 0024
ENCODING 36
SWIDTH 600 0
DWIDTH 10 0
BBX 7 13 2 -1
BITMAP
30
30
7E
FE
FE
F0
F8
7E
3E
FE
F8
30
30
ENDCHAR
STARTCHAR 0025
ENCODING 37
SWIDTH 900 0
DWIDTH 15 0
BBX 14 12 0 0
BITMAP
3030
78F0
CDE0
CDE0
CDC0
CFB0
7FF8
37CC
0DCC
1DCC
38F8
3030
ENDCHAR
STARTCHAR 0026
ENCODING 38
SWIDTH 660 0
DWIDTH 11 0
BBX 9 13 1 0
BITMAP
3C00
7F00
E700
CF00
EF00
EC00
7800
7800
FF00
CF00
C700
FF80
7F80
ENDCHAR
STARTCHAR 0027
ENCODING 39
SWIDTH 240 0
DWIDTH 4 0
BBX 2 5 1 7
BITMAP
C0
C0
C0
C0
C0
ENDCHAR
STARTCHAR 0028
ENCODING 40
SWIDTH 300 0
DWIDTH 5 0
BBX 3 13 1 -1
BITMAP
60
60
C0
C0
C0
C0
C0
C0
C0
C0
C0
60
60
ENDCHAR
STARTCHAR 0029
ENCODING 41
SWIDTH 360 0
DWIDTH 6 0
BBX 3 13 2 -1
BITMAP
C0
C0
60
60
60
60
60
60
60
60
60
C0
C0
ENDCHAR
STARTCHAR 002A
ENCODING 42
SWIDTH 420 0
DWIDTH 7 0
BBX 6 7 0 6
BITMAP
30
FC
FC
78
FC
FC
CC
ENDCHAR
STARTCHAR 002B
ENCODING 43
SWIDTH 540 0
DWIDTH 9 0
BBX 6 7 1 2
BITMAP
30
30
30
FC
FC
30
30
ENDCHAR
STARTCHAR 002C
ENCODING 44
SWIDTH 240 0
DWIDTH 4 0
BBX 2 4 1 -2
BITMAP
C0
C0
40
80
ENDCHAR
STARTCHAR 002D
ENCODING 45
SWIDTH 540 0
DWIDTH 9 0
BBX 6 2 1 4
BITMAP
FC
FC
ENDCHAR
STARTCHAR 002E
ENCODING 46
SWIDTH 240 0
DWIDTH 4 0
BBX 2 2 1 0
BITMAP
C0
C0
ENDCHAR
STARTCHAR 002F
ENCODING 47
SWIDTH 420 0
DWIDTH 7 0
BBX 6 13 0 0
BITMAP
0C
0C
1C
18
38
38
30
30
70
60
E0
C0
C0
ENDCHAR
STARTCHAR 0030
ENCODING 48
SWIDTH 600 0
DWIDTH 10 0
BBX 8 12 1 0
BITMAP
7C
FF
DF
DF
DF
DF
D7
F7
F7
F7
FF
7C
ENDCHAR
STARTCHAR 0031
ENCODING 49
SWIDTH 600 0
DWIDTH 10 0
BBX 7 12 2 0
BITMAP
30
70
F0
F0
F0
30
30
30
30
30
FE
FE
ENDCHAR
STARTCHAR 0032
ENCODING 50
SWIDTH 540 0
DWIDTH 9 0
BBX 6 12 1 0
BITMAP
78
FC
CC
CC
0C
0C
1C
38
70
F0
FC
FC
ENDCHAR
STARTCHAR 0033
ENCODING 51
SWIDTH 540 0
DWIDTH 9 0
BBX 6 12 1 0
BITMAP
78
FC
CC
CC
0C
1C
18
1C
0C
CC
FC
78
ENDCHAR
STARTCHAR 0034
ENCODING 52
SWIDTH 600 0
DWIDTH 10 0
BBX 8 12 1 0
BITMAP
0C
1C
3C
7C
7C
EC
CC
FF
FF
0C
0C
0C
ENDCHAR
STARTCHAR 0035
ENCODING 53
SWIDTH 540 0
DWIDTH 9 0
BBX 6 12 1 0
BITMAP
FC
FC
C0
C0
C0
F8
FC
0C
0C
CC
FC
78
ENDCHAR
STARTCHAR 0036
ENCODING 54
SWIDTH 540 0
DWIDTH 9 0
BBX 6 12 1 0
BITMAP
78
FC
CC
CC
C0
F8
FC
CC
CC
CC
FC
78
ENDCHAR
STARTCHAR 0037
ENCODING 55
SWIDTH 600 0
DWIDTH 10 0
BBX 8 12 1 0
BITMAP
FF
FF
07
0F
0F
1C
38
30
30
30
30
30
ENDCHAR
STARTCHAR 0038
ENCODING 56
SWIDTH 540 0
DWIDTH 9 0
BBX 6 12 1 0
BITMAP
78
FC
CC
CC
CC
78
FC
CC
CC
CC
FC
78
ENDCHAR
STARTCHAR 0039
ENCODING 57
SWIDTH 540 0
DWIDTH 9 0
BBX 6 12 1 0
BITMAP
78
FC
CC
CC
CC
FC
7C
0C
0C
CC
FC
78
ENDCHAR
STARTCHAR 003A
ENCODING 58
SWIDTH 240 0
DWIDTH 4 0
BBX 2 9 1 0
BITMAP
C0
C0
C0
00
00
00
00
C0
C0
ENDCHAR
STARTCHAR 003B
ENCODING 59
SWIDTH 240 0
DWIDTH 4 0
BBX 2 11 1 -2
BITMAP
C0
C0
C0
00
00
00
00
C0
C0
40
80
ENDCHAR
STARTCHAR 003C
ENCODING 60
SWIDTH 720 0
DWIDTH 12 0
BBX 11 9 0 1
BITMAP
03E0
0FE0
0FE0
3F80
F800
F800
3F80
0FE0
03E0
ENDCHAR
STARTCHAR 003D
ENCODING 61
SWIDTH 540 0
DWIDTH 9 0
BBX 6 7 1 2
BITMAP
FC
FC
FC
00
00
FC
FC
ENDCHAR
STARTCHAR 003E
ENCODING 62
SWIDTH 720 0
DWIDTH 12 0
BBX 11 9 0 1
BITMAP
F000
FC00
FC00
3F80
07E0
07E0
3F80
FC00
F000
ENDCHAR
STARTCHAR 003F
ENCODING 63
SWIDTH 540 0
DWIDTH 9 0
BBX 6 12 1 0
BITMAP
78
FC
CC
CC
0C
1C
38
30
30
00
30
30
ENDCHAR
STARTCHAR 0040
ENCODING 64
SWIDTH 900 0
DWIDTH 15 0
BBX 13 15 1 -3
BITMAP
3FE0
7FF0
E038
EFB8
CF98
DFD8
D9D8
D9D8
D9D8
D9D8
DFF8
CFF0
E000
7FF0
3FF0
ENDCHAR
STARTCHAR 0041
ENCODING 65
SWIDTH 660 0
DWIDTH 11 0
BBX 9 12 1 0
BITMAP
3C00
7F00
E780
E780
C380
C380
FF80
FF80
C380
C380
C380
C380
ENDCHAR
STARTCHAR 0042
ENCODING 66
SWIDTH 660 0
DWIDTH 11 0
BBX 9 12 1 0
BITMAP
FF00
FF80
C380
C380
C380
FF80
FF00
C380
C380
C380
FF80
FF00
ENDCHAR
STARTCHAR 0043
ENCODING 67
SWIDTH 660 0
DWIDTH 11 0
BBX 8 12 2 0
BITMAP
7E
FF
C7
C7
C0
C0
C0
C0
C0
C7
FF
7E
ENDCHAR
STARTCHAR 0044
ENCODING 68
SWIDTH 720 0
DWIDTH 12 0
BBX 9 12 2 0
BITMAP
FF00
FF80
C380
C380
C380
C380
C380
C380
C380
C380
FF80
FF00
ENDCHAR
STARTCHAR 0045
ENCODING 69
SWIDTH 600 0
DWIDTH 10 0
BBX 7 12 2 0
BITMAP
FE
FE
C0
C0
C0
FE
FE
C0
C0
C0
FE
FE
ENDCHAR
STARTCHAR 0046
ENCODING 70
SWIDTH 600 0
DWIDTH 10 0
BBX 7 12 2 0
BITMAP
FE
FE
C0
C0
C0
FE
FE
C0
C0
C0
C0
C0
ENDCHAR
STARTCHAR 0047
ENCODING 71
SWIDTH 660 0
DWIDTH 11 0
BBX 8 12 2 0
BITMAP
7E
FF
C7
C7
C0
C0
CF
CF
C7
C7
FF
7E
ENDCHAR
STARTCHAR 0048
ENCODING 72
SWIDTH 660 0
DWIDTH 11 0
BBX 9 12 1 0
BITMAP
C380
C380
C380
C380
C380
FF80
FF80
C380
C380
C380
C380
C380
ENDCHAR
STARTCHAR 0049
ENCODING 73
SWIDTH 360 0
DWIDTH 6 0
BBX 4 12 1 0
BITMAP
F0
F0
60
60
60
60
60
60
60
60
F0
F0
ENDCHAR
STARTCHAR 004A
ENCODING 74
SWIDTH 540 0
DWIDTH 9 0
BBX 7 12 0 0
BITMAP
1E
1E
0C
0C
0C
0C
0C
0C
0C
CC
FC
78
ENDCHAR
STARTCHAR 004B
ENCODING 75
SWIDTH 660 0
DWIDTH 11 0
BBX 9 12 1 0
BITMAP
C380
C780
CF00
DF00
DC00
F800
F000
F800
DC00
CF00
C780
C380
ENDCHAR
STARTCHAR 004C
ENCODING 76
SWIDTH 540 0
DWIDTH 9 0
BBX 6 12 1 0
BITMAP
C0
C0
C0
C0
C0
C0
C0
C0
C0
C0
FC
FC
ENDCHAR
STARTCHAR 004D
ENCODING 77
SWIDTH 780 0
DWIDTH 13 0
BBX 11 12 1 0
BITMAP
C060
E1E0
F3E0
FFE0
FFE0
DF60
CC60
C060
C060
C060
C060
C060
ENDCHAR
STARTCHAR 004E
ENCODING 78
SWIDTH 720 0
DWIDTH 12 0
BBX 10 12 1 0
BITMAP
C1C0
E1C0
F1C0
F9C0
F9C0
FDC0
DDC0
DFC0
CFC0
C7C0
C3C0
C1C0
ENDCHAR
STARTCHAR 004F
ENCODING 79
SWIDTH 720 0
DWIDTH 12 0
BBX 9 12 2 0
BITMAP
7F00
FF80
C380
C380
C380
C380
C380
C380
C380
C380
FF80
7F00
ENDCHAR
STARTCHAR 0050
ENCODING 80
SWIDTH 600 0
DWIDTH 10 0
BBX 8 12 1 0
BITMAP
FC
FF
C7
C7
C7
C7
FF
FC
C0
C0
C0
C0
ENDCHAR
STARTCHAR 0051
ENCODING 81
SWIDTH 780 0
DWIDTH 13 0
BBX 10 12 2 0
BITMAP
7F00
FF80
C380
C380
C380
C380
C380
C380
C380
C780
FF80
7FC0
ENDCHAR
STARTCHAR 0052
ENCODING 82
SWIDTH 660 0
DWIDTH 11 0
BBX 9 12 1 0
BITMAP
FF00
FF80
C380
C380
C380
FF80
FF00
C380
C380
C380
C380
C380
ENDCHAR
STARTCHAR 0053
ENCODING 83
SWIDTH 660 0
DWIDTH 11 0
BBX 9 12 1 0
BITMAP
7F00
FF80
C380
C380
C000
FF00
7F80
0380
0380
C380
FF80
7F00
ENDCHAR
STARTCHAR 0054
ENCODING 84
SWIDTH 660 0
DWIDTH 11 0
BBX 9 12 1 0
BITMAP
FF80
FF80
1800
1800
1800
1800
1800
1800
1800
1800
1800
1800
ENDCHAR
STARTCHAR 0055
ENCODING 85
SWIDTH 720 0
DWIDTH 12 0
BBX 9 12 2 0
BITMAP
C380
C380
C380
C380
C380
C380
C380
C380
C380
C380
FF80
7F00
ENDCHAR
STARTCHAR 0056
ENCODING 86
SWIDTH 720 0
DWIDTH 12 0
BBX 9 12 2 0
BITMAP
C380
C380
C380
C380
C380
C380
C380
C380
E780
7F00
3E00
1800
ENDCHAR
STARTCHAR 0057
ENCODING 87
SWIDTH 780 0
DWIDTH 13 0
BBX 11 12 1 0
BITMAP
C060
C060
C060
CC60
CC60
CC60
CC60
CC60
CC60
FFE0
7FC0
3380
ENDCHAR
STARTCHAR 0058
ENCODING 88
SWIDTH 660 0
DWIDTH 11 0
BBX 9 12 1 0
BITMAP
C380
E780
6700
7F00
7F00
3C00
1800
3C00
7F00
6700
E780
C380
ENDCHAR
STARTCHAR 0059
ENCODING 89
SWIDTH 660 0
DWIDTH 11 0
BBX 9 12 1 0
BITMAP
C380
E780
6700
7F00
7F00
3C00
1800
1800
1800
1800
1800
1800
ENDCHAR
STARTCHAR 005A
ENCODING 90
SWIDTH 720 0
DWIDTH 12 0
BBX 11 12 0 0
BITMAP
FFE0
FFE0
03C0
07C0
0780
0E00
0C00
1C00
3800
7000
FFE0
FFE0
ENDCHAR
STARTCHAR 005B
ENCODING 91
SWIDTH 300 0
DWIDTH 5 0
BBX 3 13 1 -1
BITMAP
E0
E0
C0
C0
C0
C0
C0
C0
C0
C0
C0
E0
E0
ENDCHAR
STARTCHAR 005C
ENCODING 92
SWIDTH 420 0
DWIDTH 7 0
BBX 6 13 0 0
BITMAP
C0
C0
E0
60
70
70
30
30
38
18
1C
0C
0C
ENDCHAR
STARTCHAR 005D
ENCODING 93
SWIDTH 360 0
DWIDTH 6 0
BBX 3 13 2 -1
BITMAP
E0
E0
60
60
60
60
60
60
60
60
60
E0
E0
ENDCHAR
STARTCHAR 005E
ENCODING 94
SWIDTH 540 0
DWIDTH 9 0
BBX 7 6 0 5
BITMAP
10
38
7C
7C
EE
C6
ENDCHAR
STARTCHAR 005F
ENCODING 95
SWIDTH 600 0
DWIDTH 10 0
BBX 9 2 0 -3
BITMAP
FF80
FF80
ENDCHAR
STARTCHAR 0060
ENCODING 96
SWIDTH 300 0
DWIDTH 5 0
BBX 3 4 1 8
BITMAP
C0
E0
60
60
ENDCHAR
STARTCHAR 0061
ENCODING 97
SWIDTH 540 0
DWIDTH 9 0
BBX 6 9 1 0
BITMAP
78
78
FC
CC
CC
CC
CC
FC
7C
ENDCHAR
STARTCHAR 0062
ENCODING 98
SWIDTH 600 0
DWIDTH 10 0
BBX 8 12 1 0
BITMAP
C0
C0
C0
DC
DC
FF
E7
C7
C7
E7
FF
DC
ENDCHAR
STARTCHAR 0063
ENCODING 99
SWIDTH 540 0
DWIDTH 9 0
BBX 6 9 1 0
BITMAP
78
78
FC
CC
C0
C0
CC
FC
78
ENDCHAR
STARTCHAR 0064
ENCODING 100
SWIDTH 600 0
DWIDTH 10 0
BBX 8 12 1 0
BITMAP
07
07
07
77
77
FF
CF
C7
C7
CF
FF
77
ENDCHAR
STARTCHAR 0065
ENCODING 101
SWIDTH 540 0
DWIDTH 9 0
BBX 6 9 1 0
BITMAP
78
78
FC
CC
FC
C0
CC
FC
78
ENDCHAR
STARTCHAR 0066
ENCODING 102
SWIDTH 360 0
DWIDTH 6 0
BBX 4 12 1 0
BITMAP
30
70
60
F0
F0
F0
60
60
60
60
60
60
ENDCHAR
STARTCHAR 0067
ENCODING 103
SWIDTH 600 0
DWIDTH 10 0
BBX 8 12 1 -3
BITMAP
77
77
FF
CF
C7
C7
CF
FF
77
07
FF
FC
ENDCHAR
STARTCHAR 0068
ENCODING 104
SWIDTH 600 0
DWIDTH 10 0
BBX 8 12 1 0
BITMAP
C0
C0
C0
DC
DC
FF
E7
C7
C7
C7
C7
C7
ENDCHAR
STARTCHAR 0069
ENCODING 105
SWIDTH 240 0
DWIDTH 4 0
BBX 2 12 1 0
BITMAP
C0
C0
00
C0
C0
C0
C0
C0
C0
C0
C0
C0
ENDCHAR
STARTCHAR 006A
ENCODING 106
SWIDTH 240 0
DWIDTH 4 0
BBX 4 15 -1 -3
BITMAP
30
30
00
30
30
30
30
30
30
30
30
30
30
F0
E0
ENDCHAR
STARTCHAR 006B
ENCODING 107
SWIDTH 540 0
DWIDTH 9 0
BBX 7 12 0 0
BITMAP
C0
C0
C0
C6
C6
CE
DC
F8
F8
DC
CE
C6
ENDCHAR
STARTCHAR 006C
ENCODING 108
SWIDTH 240 0
DWIDTH 4 0
BBX 2 12 1 0
BITMAP
C0
C0
C0
C0
C0
C0
C0
C0
C0
C0
C0
C0
ENDCHAR
STARTCHAR 006D
ENCODING 109
SWIDTH 780 0
DWIDTH 13 0
BBX 11 9 1 0
BITMAP
FFC0
FFC0
FFE0
CC60
CC60
CC60
CC60
CC60
CC60
ENDCHAR
STARTCHAR 006E
ENCODING 110
SWIDTH 540 0
DWIDTH 9 0
BBX 6 9 1 0
BITMAP
F8
F8
FC
CC
CC
CC
CC
CC
CC
ENDCHAR
STARTCHAR 006F
ENCODING 111
SWIDTH 540 0
DWIDTH 9 0
BBX 6 9 1 0
BITMAP
78
78
FC
CC
CC
CC
CC
FC
78
ENDCHAR
STARTCHAR 0070
ENCODING 112
SWIDTH 600 0
DWIDTH 10 0
BBX 8 12 1 -3
BITMAP
DC
DC
FF
E7
C7
C7
E7
FF
DC
C0
C0
C0
ENDCHAR
STARTCHAR 0071
ENCODING 113
SWIDTH 600 0
DWIDTH 10 0
BBX 8 12 1 -3
BITMAP
77
77
FF
CF
C7
C7
CF
FF
77
07
07
07
ENDCHAR
STARTCHAR 0072
ENCODING 114
SWIDTH 540 0
DWIDTH 9 0
BBX 6 9 1 0
BITMAP
F8
F8
FC
CC
C0
C0
C0
C0
C0
ENDCHAR
STARTCHAR 0073
ENCODING 115
SWIDTH 540 0
DWIDTH 9 0
BBX 6 9 1 0
BITMAP
7C
7C
FC
C0
F8
7C
0C
FC
F8
ENDCHAR
STARTCHAR 0074
ENCODING 116
SWIDTH 300 0
DWIDTH 5 0
BBX 4 12 0 0
BITMAP
60
60
60
F0
F0
F0
60
60
60
60
70
30
ENDCHAR
STARTCHAR 0075
ENCODING 117
SWIDTH 540 0
DWIDTH 9 0
BBX 6 9 1 0
BITMAP
CC
CC
CC
CC
CC
CC
CC
FC
7C
ENDCHAR
STARTCHAR 0076
ENCODING 118
SWIDTH 540 0
DWIDTH 9 0
BBX 6 9 1 0
BITMAP
CC
CC
CC
CC
CC
CC
FC
78
30
ENDCHAR
STARTCHAR 0077
ENCODING 119
SWIDTH 780 0
DWIDTH 13 0
BBX 11 9 1 0
BITMAP
CC60
CC60
CC60
CC60
CC60
CC60
CC60
FFE0
7FE0
ENDCHAR
STARTCHAR 0078
ENCODING 120
SWIDTH 540 0
DWIDTH 9 0
BBX 6 9 1 0
BITMAP
CC
CC
FC
78
30
30
78
FC
CC
ENDCHAR
STARTCHAR 0079
ENCODING 121
SWIDTH 540 0
DWIDTH 9 0
BBX 6 12 1 -3
BITMAP
CC
CC
CC
CC
CC
CC
CC
FC
78
38
F0
E0
ENDCHAR
STARTCHAR 007A
ENCODING 122
SWIDTH 540 0
DWIDTH 9 0
BBX 6 9 1 0
BITMAP
FC
FC
FC
18
30
30
60
FC
FC
ENDCHAR
STARTCHAR 007B
ENCODING 123
SWIDTH 360 0
DWIDTH 6 0
BBX 5 13 0 -1
BITMAP
38
38
60
60
60
60
C0
C0
60
60
60
38
38
ENDCHAR
STARTCHAR 007C
ENCODING 124
SWIDTH 240 0
DWIDTH 4 0
BBX 2 14 1 -2
BITMAP
C0
C0
C0
C0
C0
C0
C0
C0
C0
C0
C0
C0
C0
C0
ENDCHAR
STARTCHAR 007D
ENCODING 125
SWIDTH 360 0
DWIDTH 6 0
BBX 5 13 0 -1
BITMAP
E0
E0
30
30
30
30
18
18
30
30
30
E0
E0
ENDCHAR
STARTCHAR 007E
ENCODING 126
SWIDTH 660 0
DWIDTH 11 0
BBX 9 3 1 4
BITMAP
7380
FF80
CF00
ENDCHAR
STARTCHAR 00A0
ENCODING 160
SWIDTH 300 0
DWIDTH 5 0
BBX 0 0 0 0
BITMAP
ENDCHAR
STARTCHAR 00A1
ENCODING 161
SWIDTH 240 0
DWIDTH 4 0
BBX 2 12 1 -3
BITMAP
C0
C0
C0
00
C0
C0
C0
C0
C0
C0
C0
C0
ENDCHAR
STARTCHAR 00A2
ENCODING 162
SWIDTH 540 0
DWIDTH 9 0
BBX 6 13 1 -2
BITMAP
30
30
78
78
FC
FC
F0
F0
FC
FC
78
30
30
ENDCHAR
STARTCHAR 00A3
ENCODING 163
SWIDTH 600 0
DWIDTH 10 0
BBX 9 13 0 0
BITMAP
3E00
7F80
E380
E000
E000
6000
FC00
FC00
6000
6000
7C00
FF80
E780
ENDCHAR
STARTCHAR 00A4
ENCODING 164
SWIDTH 660 0
DWIDTH 11 0
BBX 10 10 0 1
BITMAP
C1C0
FFC0
FFC0
7F80
6380
6380
6380
7F80
FFC0
C1C0
ENDCHAR
STARTCHAR 00A5
ENCODING 165
SWIDTH 660 0
DWIDTH 11 0
BBX 9 12 1 0
BITMAP
C380
E780
6700
7F00
7F00
3F00
FF80
FF80
1800
FF80
FF80
1800
ENDCHAR
STARTCHAR 00A6
ENCODING 166
SWIDTH 240 0
DWIDTH 4 0
BBX 2 14 1 -2
BITMAP
C0
C0
C0
C0
C0
C0
C0
00
00
C0
C0
C0
C0
C0
ENDCHAR
STARTCHAR 00A7
ENCODING 167
SWIDTH 600 0
DWIDTH 10 0
BBX 8 17 1 -4
BITMAP
7C
FC
C0
E0
F0
70
78
FC
CF
E7
7F
3C
1C
0F
07
7F
7C
ENDCHAR
STARTCHAR 00A8
ENCODING 168
SWIDTH 360 0
DWIDTH 6 0
BBX 5 2 0 11
BITMAP
D8
D8
ENDCHAR
STARTCHAR 00A9
ENCODING 169
SWIDTH 780 0
DWIDTH 13 0
BBX 13 15 -1 -2
BITMAP
3FE0
7FF0
E078
CF18
DFD8
DFD8
D9D8
D818
D818
D9D8
DFD8
CF18
E078
7FF0
3FE0
ENDCHAR
STARTCHAR 00AA
ENCODING 170
SWIDTH 420 0
DWIDTH 7 0
BBX 6 8 0 5
BITMAP
78
FC
CC
CC
CC
CC
FC
7C
ENDCHAR
STARTCHAR 00AB
ENCODING 171
SWIDTH 600 0
DWIDTH 10 0
BBX 9 6 0 1
BITMAP
3380
7780
EE00
EE00
7780
3380
ENDCHAR
STARTCHAR 00AC
ENCODING 172
SWIDTH 660 0
DWIDTH 11 0
BBX 9 5 1 4
BITMAP
FF80
FF80
FF80
0380
0380
ENDCHAR
STARTCHAR 00AE
ENCODING 174
SWIDTH 780 0
DWIDTH 13 0
BBX 13 15 -1 -2
BITMAP
3FE0
7FF0
E078
DF18
DFD8
DFD8
D9D8
DFD8
DF18
D9D8
D9D8
D9D8
E078
7FF0
3FE0
ENDCHAR
STARTCHAR 00AF
ENCODING 175
SWIDTH 420 0
DWIDTH 7 0
BBX 4 1 2 11
BITMAP
F0
ENDCHAR
STARTCHAR 00B0
ENCODING 176
SWIDTH 420 0
DWIDTH 7 0
BBX 6 7 0 6
BITMAP
30
78
CC
CC
FC
78
30
ENDCHAR
STARTCHAR 00B1
ENCODING 177
SWIDTH 540 0
DWIDTH 9 0
BBX 6 9 1 0
BITMAP
30
30
30
FC
FC
30
30
FC
FC
ENDCHAR
STARTCHAR 00B2
ENCODING 178
SWIDTH 360 0
DWIDTH 6 0
BBX 5 8 0 5
BITMAP
70
F8
D8
38
78
70
F8
F8
ENDCHAR
STARTCHAR 00B3
ENCODING 179
SWIDTH 360 0
DWIDTH 6 0
BBX 5 8 0 5
BITMAP
70
F8
D8
38
F8
D8
F8
70
ENDCHAR
STARTCHAR 00B4
ENCODING 180
SWIDTH 300 0
DWIDTH 5 0
BBX 3 4 1 8
BITMAP
60
E0
C0
C0
ENDCHAR
STARTCHAR 00B5
ENCODING 181
SWIDTH 540 0
DWIDTH 9 0
BBX 6 12 1 -3
BITMAP
CC
CC
CC
CC
CC
CC
CC
FC
FC
C0
C0
C0
ENDCHAR
STARTCHAR 00B6
ENCODING 182
SWIDTH 600 0
DWIDTH 10 0
BBX 8 14 1 -2
BITMAP
7F
FF
E7
E7
E7
E7
FF
7F
37
37
37
37
37
37
ENDCHAR
STARTCHAR 00B7
ENCODING 183
SWIDTH 240 0
DWIDTH 4 0
BBX 2 2 1 5
BITMAP
C0
C0
ENDCHAR
STARTCHAR 00B8
ENCODING 184
SWIDTH 300 0
DWIDTH 5 0
BBX 3 5 1 -4
BITMAP
60
E0
60
E0
C0
ENDCHAR
STARTCHAR 00B9
ENCODING 185
SWIDTH 360 0
DWIDTH 6 0
BBX 4 7 1 6
BITMAP
60
E0
E0
60
F0
F0
F0
ENDCHAR
STARTCHAR 00BA
ENCODING 186
SWIDTH 420 0
DWIDTH 7 0
BBX 6 8 0 5
BITMAP
30
78
CC
CC
CC
CC
78
30
ENDCHAR
STARTCHAR 00BB
ENCODING 187
SWIDTH 600 0
DWIDTH 10 0
BBX 9 6 0 1
BITMAP
CC00
EE00
7780
7780
EE00
CC00
ENDCHAR
STARTCHAR 00BC
ENCODING 188
SWIDTH 960 0
DWIDTH 16 0
BBX 14 13 1 0
BITMAP
6000
E060
E1E0
63C0
F3C0
F380
F700
0F18
0C38
1878
39FC
71FC
6018
ENDCHAR
STARTCHAR 00BD
ENCODING 189
SWIDTH 900 0
DWIDTH 15 0
BBX 13 13 1 0
BITMAP
6000
E060
E1E0
63C0
F3C0
F380
F770
0FF8
0DD8
1838
3870
71F8
61F8
ENDCHAR
STARTCHAR 00BE
ENCODING 190
SWIDTH 900 0
DWIDTH 15 0
BBX 14 13 0 0
BITMAP
7000
F830
D8F0
39E0
F9E0
D9C0
FB80
7798
0638
0CF8
1DFC
39FC
3018
ENDCHAR
STARTCHAR 00BF
ENCODING 191
SWIDTH 540 0
DWIDTH 9 0
BBX 6 12 1 -3
BITMAP
30
30
30
00
30
30
70
E0
C0
CC
FC
78
ENDCHAR
STARTCHAR 00C0
ENCODING 192
SWIDTH 660 0
DWIDTH 11 0
BBX 9 13 1 0
BITMAP
1000
0800
3C00
7F00
FF80
E780
C380
FF80
FF80
C380
C380
C380
C380
ENDCHAR
STARTCHAR 00C1
ENCODING 193
SWIDTH 660 0
DWIDTH 11 0
BBX 9 13 1 0
BITMAP
0800
1000
3C00
7F00
FF80
E780
C380
FF80
FF80
C380
C380
C380
C380
ENDCHAR
STARTCHAR 00C2
ENCODING 194
SWIDTH 660 0
DWIDTH 11 0
BBX 9 13 1 0
BITMAP
1800
2400
3C00
7F00
FF80
E780
C380
FF80
FF80
C380
C380
C380
C380
ENDCHAR
STARTCHAR 00C3
ENCODING 195
SWIDTH 660 0
DWIDTH 11 0
BBX 9 13 1 0
BITMAP
1400
2800
3C00
7F00
FF80
E780
C380
FF80
FF80
C380
C380
C380
C380
ENDCHAR
STARTCHAR 00C4
ENCODING 196
SWIDTH 660 0
DWIDTH 11 0
BBX 9 13 1 0
BITMAP
2400
0000
3C00
7F00
FF80
E780
C380
FF80
FF80
C380
C380
C380
C380
ENDCHAR
STARTCHAR 00C5
ENCODING 197
SWIDTH 660 0
DWIDTH 11 0
BBX 9 13 1 0
BITMAP
3C00
1800
3C00
7F00
FF80
E780
C380
FF80
FF80
C380
C380
C380
C380
ENDCHAR
STARTCHAR 00C6
ENCODING 198
SWIDTH 900 0
DWIDTH 15 0
BBX 14 12 0 0
BITMAP
07FC
0FFC
0DC0
1DC0
19C0
19FC
31FC
3FC0
7FC0
61C0
C1FC
C1FC
ENDCHAR
STARTCHAR 00C7
ENCODING 199
SWIDTH 660 0
DWIDTH 11 0
BBX 8 16 2 -4
BITMAP
7E
FF
C7
C7
C0
C0
C0
C0
C0
C7
FF
7E
38
18
38
30
ENDCHAR
STARTCHAR 00C8
ENCODING 200
SWIDTH 600 0
DWIDTH 10 0
BBX 7 13 2 0
BITMAP
20
10
FE
FE
FE
C0
C0
FE
FE
C0
C0
FE
FE
ENDCHAR
STARTCHAR 00C9
ENCODING 201
SWIDTH 600 0
DWIDTH 10 0
BBX 7 13 2 0
BITMAP
10
20
FE
FE
FE
C0
C0
FE
FE
C0
C0
FE
FE
ENDCHAR
STARTCHAR 00CA
ENCODING 202
SWIDTH 600 0
DWIDTH 10 0
BBX 7 13 2 0
BITMAP
30
48
FE
FE
FE
C0
C0
FE
FE
C0
C0
FE
FE
ENDCHAR
STARTCHAR 00CB
ENCODING 203
SWIDTH 600 0
DWIDTH 10 0
BBX 7 13 2 0
BITMAP
48
00
FE
FE
FE
C0
C0
FE
FE
C0
C0
FE
FE
ENDCHAR
STARTCHAR 00CC
ENCODING 204
SWIDTH 360 0
DWIDTH 6 0
BBX 4 13 1 0
BITMAP
40
20
F0
F0
F0
60
60
60
60
60
60
F0
F0
ENDCHAR
STARTCHAR 00CD
ENCODING 205
SWIDTH 360 0
DWIDTH 6 0
BBX 4 13 1 0
BITMAP
20
40
F0
F0
F0
60
60
60
60
60
60
F0
F0
ENDCHAR
STARTCHAR 00CE
ENCODING 206
SWIDTH 360 0
DWIDTH 6 0
BBX 4 13 1 0
BITMAP
60
90
F0
F0
F0
60
60
60
60
60
60
F0
F0
ENDCHAR
STARTCHAR 00CF
ENCODING 207
SWIDTH 360 0
DWIDTH 6 0
BBX 4 13 1 0
BITMAP
90
00
F0
F0
F0
60
60
60
60
60
60
F0
F0
ENDCHAR
STARTCHAR 00D0
ENCODING 208
SWIDTH 720 0
DWIDTH 12 0
BBX 11 12 0 0
BITMAP
3FC0
3FE0
30E0
30E0
30E0
FCE0
FCE0
30E0
30E0
30E0
3FE0
3FC0
ENDCHAR
STARTCHAR 00D1
ENCODING 209
SWIDTH 720 0
DWIDTH 12 0
BBX 10 13 1 0
BITMAP
3300
4C00
C1C0
E1C0
F1C0
F1C0
F9C0
FDC0
DFC0
CFC0
C7C0
C3C0
C1C0
ENDCHAR
STARTCHAR 00D2
ENCODING 210
SWIDTH 720 0
DWIDTH 12 0
BBX 9 13 2 0
BITMAP
1000
0800
7F00
FF80
FF80
C380
C380
C380
C380
C380
C380
FF80
7F00
ENDCHAR
STARTCHAR 00D3
ENCODING 211
SWIDTH 720 0
DWIDTH 12 0
BBX 9 13 2 0
BITMAP
0800
1000
7F00
FF80
FF80
C380
C380
C380
C380
C380
C380
FF80
7F00
ENDCHAR
STARTCHAR 00D4
ENCODING 212
SWIDTH 720 0
DWIDTH 12 0
BBX 9 13 2 0
BITMAP
1800
2600
7F00
FF80
FF80
C380
C380
C380
C380
C380
C380
FF80
7F00
ENDCHAR
STARTCHAR 00D5
ENCODING 213
SWIDTH 720 0
DWIDTH 12 0
BBX 9 13 2 0
BITMAP
1600
2800
7F00
FF80
FF80
C380
C380
C380
C380
C380
C380
FF80
7F00
ENDCHAR
STARTCHAR 00D6
ENCODING 214
SWIDTH 720 0
DWIDTH 12 0
BBX 9 13 2 0
BITMAP
2600
0000
7F00
FF80
FF80
C380
C380
C380
C380
C380
C380
FF80
7F00
ENDCHAR
STARTCHAR 00D7
ENCODING 215
SWIDTH 540 0
DWIDTH 9 0
BBX 6 7 1 2
BITMAP
CC
CC
FC
78
78
FC
CC
ENDCHAR
STARTCHAR 00D8
ENCODING 216
SWIDTH 840 0
DWIDTH 14 0
BBX 15 15 -2 -2
BITMAP
1FF6
3FFE
703C
607C
60FC
60FC
61EC
638C
670C
6E0C
7C0C
780C
703C
FFF8
DFF0
ENDCHAR
STARTCHAR 00D9
ENCODING 217
SWIDTH 720 0
DWIDTH 12 0
BBX 9 13 2 0
BITMAP
1000
0800
C380
C380
C380
C380
C380
C380
C380
C380
C380
FF80
7F00
ENDCHAR
STARTCHAR 00DA
ENCODING 218
SWIDTH 720 0
DWIDTH 12 0
BBX 9 13 2 0
BITMAP
0800
1000
C380
C380
C380
C380
C380
C380
C380
C380
C380
FF80
7F00
ENDCHAR
STARTCHAR 00DB
ENCODING 219
SWIDTH 720 0
DWIDTH 12 0
BBX 9 13 2 0
BITMAP
1800
2600
C380
C380
C380
C380
C380
C380
C380
C380
C380
FF80
7F00
ENDCHAR
STARTCHAR 00DC
ENCODING 220
SWIDTH 720 0
DWIDTH 12 0
BBX 9 13 2 0
BITMAP
2600
0000
C380
C380
C380
C380
C380
C380
C380
C380
C380
FF80
7F00
ENDCHAR
STARTCHAR 00DD
ENCODING 221
SWIDTH 660 0
DWIDTH 11 0
BBX 9 13 1 0
BITMAP
0800
1000
C380
E780
E780
6700
7F00
3C00
1800
1800
1800
1800
1800
ENDCHAR
STARTCHAR 00DE
ENCODING 222
SWIDTH 660 0
DWIDTH 11 0
BBX 9 12 1 0
BITMAP
C000
C000
FC00
FF00
FF00
C780
C380
C780
FF00
FC00
C000
C000
ENDCHAR
STARTCHAR 00DF
ENCODING 223
SWIDTH 660 0
DWIDTH 11 0
BBX 9 12 1 0
BITMAP
7C00
FF00
C700
C700
C700
CF00
CC00
CF00
C780
F380
FF80
DF00
ENDCHAR
STARTCHAR 00E0
ENCODING 224
SWIDTH 540 0
DWIDTH 9 0
BBX 6 12 1 0
BITMAP
20
10
00
78
78
FC
CC
CC
CC
CC
FC
7C
ENDCHAR
STARTCHAR 00E1
ENCODING 225
SWIDTH 540 0
DWIDTH 9 0
BBX 6 12 1 0
BITMAP
10
20
00
78
78
FC
CC
CC
CC
CC
FC
7C
ENDCHAR
STARTCHAR 00E2
ENCODING 226
SWIDTH 540 0
DWIDTH 9 0
BBX 6 12 1 0
BITMAP
30
48
00
78
78
FC
CC
CC
CC
CC
FC
7C
ENDCHAR
STARTCHAR 00E3
ENCODING 227
SWIDTH 540 0
DWIDTH 9 0
BBX 6 12 1 0
BITMAP
28
50
00
78
78
FC
CC
CC
CC
CC
FC
7C
ENDCHAR
STARTCHAR 00E4
ENCODING 228
SWIDTH 540 0
DWIDTH 9 0
BBX 6 11 1 0
BITMAP
48
00
78
78
FC
CC
CC
CC
CC
FC
7C
ENDCHAR
STARTCHAR 00E5
ENCODING 229
SWIDTH 540 0
DWIDTH 9 0
BBX 6 13 1 0
BITMAP
30
48
30
00
78
78
FC
CC
CC
CC
CC
FC
7C
ENDCHAR
STARTCHAR 00E6
ENCODING 230
SWIDTH 840 0
DWIDTH 14 0
BBX 12 9 1 0
BITMAP
79E0
79E0
FFF0
CF30
CFF0
CF00
CF30
FFF0
7FE0
ENDCHAR
STARTCHAR 00E7
ENCODING 231
SWIDTH 540 0
DWIDTH 9 0
BBX 6 13 1 -4
BITMAP
78
78
FC
CC
C0
C0
CC
FC
78
38
18
38
30
ENDCHAR
STARTCHAR 00E8
ENCODING 232
SWIDTH 540 0
DWIDTH 9 0
BBX 6 12 1 0
BITMAP
20
10
00
78
78
FC
CC
FC
C0
CC
FC
78
ENDCHAR
STARTCHAR 00E9
ENCODING 233
SWIDTH 540 0
DWIDTH 9 0
BBX 6 12 1 0
BITMAP
10
20
00
78
78
FC
CC
FC
C0
CC
FC
78
ENDCHAR
STARTCHAR 00EA
ENCODING 234
SWIDTH 540 0
DWIDTH 9 0
BBX 6 12 1 0
BITMAP
30
48
00
78
78
FC
CC
FC
C0
CC
FC
78
ENDCHAR
STARTCHAR 00EB
ENCODING 235
SWIDTH 540 0
DWIDTH 9 0
BBX 6 11 1 0
BITMAP
48
00
78
78
FC
CC
FC
C0
CC
FC
78
ENDCHAR
STARTCHAR 00EC
ENCODING 236
SWIDTH 240 0
DWIDTH 4 0
BBX 2 12 1 0
BITMAP
80
40
00
C0
C0
C0
C0
C0
C0
C0
C0
C0
ENDCHAR
STARTCHAR 00ED
ENCODING 237
SWIDTH 240 0
DWIDTH 4 0
BBX 2 12 1 0
BITMAP
40
80
00
C0
C0
C0
C0
C0
C0
C0
C0
C0
ENDCHAR
STARTCHAR 00EE
ENCODING 238
SWIDTH 300 0
DWIDTH 5 0
BBX 4 12 0 0
BITMAP
60
90
00
60
60
60
60
60
60
60
60
60
ENDCHAR
STARTCHAR 00EF
ENCODING 239
SWIDTH 300 0
DWIDTH 5 0
BBX 4 11 0 0
BITMAP
90
00
60
60
60
60
60
60
60
60
60
ENDCHAR
STARTCHAR 00F0
ENCODING 240
SWIDTH 600 0
DWIDTH 10 0
BBX 8 13 1 0
BITMAP
37
7F
FC
CC
FC
7C
FC
CC
CC
CC
CC
FC
78
ENDCHAR
STARTCHAR 00F1
ENCODING 241
SWIDTH 540 0
DWIDTH 9 0
BBX 6 12 1 0
BITMAP
28
50
00
F8
F8
FC
CC
CC
CC
CC
CC
CC
ENDCHAR
STARTCHAR 00F2
ENCODING 242
SWIDTH 540 0
DWIDTH 9 0
BBX 6 12 1 0
BITMAP
20
10
00
78
78
FC
CC
CC
CC
CC
FC
78
ENDCHAR
STARTCHAR 00F3
ENCODING 243
SWIDTH 540 0
DWIDTH 9 0
BBX 6 12 1 0
BITMAP
10
20
00
78
78
FC
CC
CC
CC
CC
FC
78
ENDCHAR
STARTCHAR 00F4
ENCODING 244
SWIDTH 540 0
DWIDTH 9 0
BBX 6 12 1 0
BITMAP
30
48
00
78
78
FC
CC
CC
CC
CC
FC
78
ENDCHAR
STARTCHAR 00F5
ENCODING 245
SWIDTH 540 0
DWIDTH 9 0
BBX 6 12 1 0
BITMAP
28
50
00
78
78
FC
CC
CC
CC
CC
FC
78
ENDCHAR
STARTCHAR 00F6
ENCODING 246
SWIDTH 540 0
DWIDTH 9 0
BBX 6 11 1 0
BITMAP
48
00
78
78
FC
CC
CC
CC
CC
FC
78
ENDCHAR
STARTCHAR 00F7
ENCODING 247
SWIDTH 540 0
DWIDTH 9 0
BBX 6 7 1 2
BITMAP
30
30
00
FC
FC
00
30
ENDCHAR
STARTCHAR 00F8
ENCODING 248
SWIDTH 720 0
DWIDTH 12 0
BBX 11 11 0 -1
BITMAP
00E0
1FE0
1FE0
3FC0
67C0
6FC0
7DC0
79C0
7F80
FE00
C000
ENDCHAR
STARTCHAR 00F9
ENCODING 249
SWIDTH 540 0
DWIDTH 9 0
BBX 6 12 1 0
BITMAP
20
10
00
CC
CC
CC
CC
CC
CC
CC
FC
7C
ENDCHAR
STARTCHAR 00FA
ENCODING 250
SWIDTH 540 0
DWIDTH 9 0
BBX 6 12 1 0
BITMAP
10
20
00
CC
CC
CC
CC
CC
CC
CC
FC
7C
ENDCHAR
STARTCHAR 00FB
ENCODING 251
SWIDTH 540 0
DWIDTH 9 0
BBX 6 12 1 0
BITMAP
30
48
00
CC
CC
CC
CC
CC
CC
CC
FC
7C
ENDCHAR
STARTCHAR 00FC
ENCODING 252
SWIDTH 540 0
DWIDTH 9 0
BBX 6 11 1 0
BITMAP
48
00
CC
CC
CC
CC
CC
CC
CC
FC
7C
ENDCHAR
STARTCHAR 00FD
ENCODING 253
SWIDTH 540 0
DWIDTH 9 0
BBX 6 15 1 -3
BITMAP
10
20
00
CC
CC
CC
CC
CC
CC
CC
FC
78
38
F0
E0
ENDCHAR
STARTCHAR 00FE
ENCODING 254
SWIDTH 660 0
DWIDTH 11 0
BBX 9 15 1 -3
BITMAP
C000
C000
C000
C000
C000
C000
FC00
FF00
C780
C380
C780
FF00
FC00
C000
C000
ENDCHAR
STARTCHAR 00FF
ENCODING 255
SWIDTH 540 0
DWIDTH 9 0
BBX 6 14 1 -3
BITMAP
48
00
CC
CC
CC
CC
CC
CC
CC
FC
78
38
F0
E0
ENDCHAR
STARTCHAR 0100
ENCODING 256
SWIDTH 660 0
DWIDTH 11 0
BBX 9 13 1 0
BITMAP
3C00
0000
3C00
7F00
FF80
E780
C380
FF80
FF80
C380
C380
C380
C380
ENDCHAR
STARTCHAR 0101
ENCODING 257
SWIDTH 540 0
DWIDTH 9 0
BBX 6 11 1 0
BITMAP
78
00
78
78
FC
CC
CC
CC
CC
FC
7C
ENDCHAR
STARTCHAR 0102
ENCODING 258
SWIDTH 660 0
DWIDTH 11 0
BBX 9 13 1 0
BITMAP
2400
1800
3C00
7F00
FF80
E780
C380
FF80
FF80
C380
C380
C380
C380
ENDCHAR
STARTCHAR 0103
ENCODING 259
SWIDTH 540 0
DWIDTH 9 0
BBX 6 12 1 0
BITMAP
48
30
00
78
78
FC
CC
CC
CC
CC
FC
7C
ENDCHAR
STARTCHAR 0104
ENCODING 260
SWIDTH 660 0
DWIDTH 11 0
BBX 9 16 1 -4
BITMAP
3C00
7F00
E780
E780
C380
C380
FF80
FF80
C380
C380
C380
C380
0780
0380
0780
0700
ENDCHAR
STARTCHAR 0105
ENCODING 261
SWIDTH 540 0
DWIDTH 9 0
BBX 6 13 1 -4
BITMAP
78
78
FC
CC
CC
CC
CC
FC
7C
1C
0C
1C
18
ENDCHAR
STARTCHAR 0106
ENCODING 262
SWIDTH 660 0
DWIDTH 11 0
BBX 8 13 2 0
BITMAP
10
20
7E
FF
FF
C7
C0
C0
C0
C0
C7
FF
7E
ENDCHAR
STARTCHAR 0107
ENCODING 263
SWIDTH 540 0
DWIDTH 9 0
BBX 6 12 1 0
BITMAP
10
20
00
78
78
FC
CC
C0
C0
CC
FC
78
ENDCHAR
STARTCHAR 0108
ENCODING 264
SWIDTH 660 0
DWIDTH 11 0
BBX 8 13 2 0
BITMAP
30
48
7E
FF
FF
C7
C0
C0
C0
C0
C7
FF
7E
ENDCHAR
STARTCHAR 0109
ENCODING 265
SWIDTH 540 0
DWIDTH 9 0
BBX 6 12 1 0
BITMAP
30
48
00
78
78
FC
CC
C0
C0
CC
FC
78
ENDCHAR
STARTCHAR 010A
ENCODING 266
SWIDTH 660 0
DWIDTH 11 0
BBX 8 13 2 0
BITMAP
20
10
7E
FF
FF
C7
C0
C0
C0
C0
C7
FF
7E
ENDCHAR
STARTCHAR 010B
ENCODING 267
SWIDTH 540 0
DWIDTH 9 0
BBX 6 12 1 0
BITMAP
20
10
00
78
78
FC
CC
C0
C0
CC
FC
78
ENDCHAR
STARTCHAR 010C
ENCODING 268
SWIDTH 660 0
DWIDTH 11 0
BBX 8 13 2 0
BITMAP
48
30
7E
FF
FF
C7
C0
C0
C0
C0
C7
FF
7E
ENDCHAR
STARTCHAR 010D
ENCODING 269
SWIDTH 540 0
DWIDTH 9 0
BBX 6 12 1 0
BITMAP
48
30
00
78
78
FC
CC
C0
C0
CC
FC
78
ENDCHAR
STARTCHAR 010E
ENCODING 270
SWIDTH 720 0
DWIDTH 12 0
BBX 9 13 2 0
BITMAP
4800
3000
FF00
FF80
FF80
C380
C380
C380
C380
C380
C380
FF80
FF00
ENDCHAR
STARTCHAR 010F
ENCODING 271
SWIDTH 780 0
DWIDTH 13 0
BBX 11 12 1 0
BITMAP
0760
0760
0740
7740
7700
FF00
CF00
C700
C700
CF00
FF00
7700
ENDCHAR
STARTCHAR 0110
ENCODING 272
SWIDTH 720 0
DWIDTH 12 0
BBX 11 12 0 0
BITMAP
3FC0
3FE0
30E0
30E0
30E0
FCE0
FCE0
30E0
30E0
30E0
3FE0
3FC0
ENDCHAR
STARTCHAR 0111
ENCODING 273
SWIDTH 660 0
DWIDTH 11 0
BBX 9 12 1 0
BITMAP
0700
0F80
0F80
7F80
7700
FF00
CF00
C700
C700
CF00
FF00
7700
ENDCHAR
STARTCHAR 0112
ENCODING 274
SWIDTH 600 0
DWIDTH 10 0
BBX 7 13 2 0
BITMAP
78
00
FE
FE
FE
C0
C0
FE
FE
C0
C0
FE
FE
ENDCHAR
STARTCHAR 0113
ENCODING 275
SWIDTH 540 0
DWIDTH 9 0
BBX 6 11 1 0
BITMAP
78
00
78
78
FC
CC
FC
C0
CC
FC
78
ENDCHAR
STARTCHAR 0114
ENCODING 276
SWIDTH 600 0
DWIDTH 10 0
BBX 7 13 2 0
BITMAP
48
30
FE
FE
FE
C0
C0
FE
FE
C0
C0
FE
FE
ENDCHAR
STARTCHAR 0115
ENCODING 277
SWIDTH 540 0
DWIDTH 9 0
BBX 6 12 1 0
BITMAP
48
30
00
78
78
FC
CC
FC
C0
CC
FC
78
ENDCHAR
STARTCHAR 0116
ENCODING 278
SWIDTH 600 0
DWIDTH 10 0
BBX 7 13 2 0
BITMAP
10
20
FE
FE
FE
C0
C0
FE
FE
C0
C0
FE
FE
ENDCHAR
STARTCHAR 0117
ENCODING 279
SWIDTH 540 0
DWIDTH 9 0
BBX 6 12 1 0
BITMAP
10
20
00
78
78
FC
CC
FC
C0
CC
FC
78
ENDCHAR
STARTCHAR 0118
ENCODING 280
SWIDTH 600 0
DWIDTH 10 0
BBX 7 15 2 -4
BITMAP
FE
FE
FE
C0
C0
FE
FE
C0
C0
FE
FE
1E
0E
1E
18
ENDCHAR
STARTCHAR 0119
ENCODING 281
SWIDTH 540 0
DWIDTH 9 0
BBX 6 13 1 -4
BITMAP
78
78
FC
CC
FC
C0
CC
FC
78
38
18
38
30
ENDCHAR
STARTCHAR 011A
ENCODING 282
SWIDTH 600 0
DWIDTH 10 0
BBX 7 13 2 0
BITMAP
48
30
FE
FE
FE
C0
C0
FE
FE
C0
C0
FE
FE
ENDCHAR
STARTCHAR 011B
ENCODING 283
SWIDTH 540 0
DWIDTH 9 0
BBX 6 12 1 0
BITMAP
48
30
00
78
78
FC
CC
FC
C0
CC
FC
78
ENDCHAR
STARTCHAR 011C
ENCODING 284
SWIDTH 660 0
DWIDTH 11 0
BBX 8 13 2 0
BITMAP
30
48
7E
FF
FF
C7
C0
CF
CF
C7
C7
FF
7E
ENDCHAR
STARTCHAR 011D
ENCODING 285
SWIDTH 600 0
DWIDTH 10 0
BBX 8 15 1 -3
BITMAP
30
48
00
77
77
FF
CF
C7
C7
CF
FF
77
07
FF
FC
ENDCHAR
STARTCHAR 011E
ENCODING 286
SWIDTH 660 0
DWIDTH 11 0
BBX 8 13 2 0
BITMAP
48
30
7E
FF
FF
C7
C0
CF
CF
C7
C7
FF
7E
ENDCHAR
STARTCHAR 011F
ENCODING 287
SWIDTH 600 0
DWIDTH 10 0
BBX 8 15 1 -3
BITMAP
48
30
00
77
77
FF
CF
C7
C7
CF
FF
77
07
FF
FC
ENDCHAR
STARTCHAR 0120
ENCODING 288
SWIDTH 660 0
DWIDTH 11 0
BBX 8 13 2 0
BITMAP
10
20
7E
FF
FF
C7
C0
CF
CF
C7
C7
FF
7E
ENDCHAR
STARTCHAR 0121
ENCODING 289
SWIDTH 600 0
DWIDTH 10 0
BBX 8 15 1 -3
BITMAP
10
20
00
77
77
FF
CF
C7
C7
CF
FF
77
07
FF
FC
ENDCHAR
STARTCHAR 0122
ENCODING 290
SWIDTH 660 0
DWIDTH 11 0
BBX 8 15 2 -4
BITMAP
7E
FF
FF
C7
C0
CF
CF
C7
C7
FF
7E
1E
0E
1E
18
ENDCHAR
STARTCHAR 0123
ENCODING 291
SWIDTH 600 0
DWIDTH 10 0
BBX 8 16 1 -3
BITMAP
10
30
20
00
77
77
FF
CF
C7
C7
CF
FF
77
07
FF
FC
ENDCHAR
STARTCHAR 0124
ENCODING 292
SWIDTH 660 0
DWIDTH 11 0
BBX 9 13 1 0
BITMAP
1800
2400
C380
C380
C380
C380
C380
FF80
FF80
C380
C380
C380
C380
ENDCHAR
STARTCHAR 0125
ENCODING 293
SWIDTH 600 0
DWIDTH 10 0
BBX 8 13 1 0
BITMAP
18
E4
C0
C0
DC
DC
FF
E7
C7
C7
C7
C7
C7
ENDCHAR
STARTCHAR 0126
ENCODING 294
SWIDTH 780 0
DWIDTH 13 0
BBX 13 12 -1 0
BITMAP
30E0
FFF8
FFF8
FFF8
30E0
3FE0
3FE0
30E0
30E0
30E0
30E0
30E0
ENDCHAR
STARTCHAR 0127
ENCODING 295
SWIDTH 600 0
DWIDTH 10 0
BBX 9 12 0 0
BITMAP
6000
F000
F000
FE00
6E00
7F80
7380
6380
6380
6380
6380
6380
ENDCHAR
STARTCHAR 0128
ENCODING 296
SWIDTH 360 0
DWIDTH 6 0
BBX 4 13 1 0
BITMAP
50
A0
F0
F0
F0
60
60
60
60
60
60
F0
F0
ENDCHAR
STARTCHAR 0129
ENCODING 297
SWIDTH 420 0
DWIDTH 7 0
BBX 7 13 -1 0
BITMAP
76
FE
DC
00
30
30
30
30
30
30
30
30
30
ENDCHAR
STARTCHAR 012A
ENCODING 298
SWIDTH 360 0
DWIDTH 6 0
BBX 4 13 1 0
BITMAP
F0
00
F0
F0
F0
60
60
60
60
60
60
F0
F0
ENDCHAR
STARTCHAR 012B
ENCODING 299
SWIDTH 360 0
DWIDTH 6 0
BBX 6 12 -1 0
BITMAP
FC
FC
00
30
30
30
30
30
30
30
30
30
ENDCHAR
STARTCHAR 012C
ENCODING 300
SWIDTH 360 0
DWIDTH 6 0
BBX 4 13 1 0
BITMAP
90
60
F0
F0
F0
60
60
60
60
60
60
F0
F0
ENDCHAR
STARTCHAR 012D
ENCODING 301
SWIDTH 300 0
DWIDTH 5 0
BBX 4 12 0 0
BITMAP
90
60
00
60
60
60
60
60
60
60
60
60
ENDCHAR
STARTCHAR 012E
ENCODING 302
SWIDTH 360 0
DWIDTH 6 0
BBX 4 16 1 -4
BITMAP
F0
F0
60
60
60
60
60
60
60
60
F0
F0
70
30
70
60
ENDCHAR
STARTCHAR 012F
ENCODING 303
SWIDTH 240 0
DWIDTH 4 0
BBX 3 16 0 -4
BITMAP
60
60
00
60
60
60
60
60
60
60
60
60
E0
60
E0
C0
ENDCHAR
STARTCHAR 0130
ENCODING 304
SWIDTH 360 0
DWIDTH 6 0
BBX 4 13 1 0
BITMAP
20
40
F0
F0
F0
60
60
60
60
60
60
F0
F0
ENDCHAR
STARTCHAR 0131
ENCODING 305
SWIDTH 240 0
DWIDTH 4 0
BBX 2 9 1 0
BITMAP
C0
C0
C0
C0
C0
C0
C0
C0
C0
ENDCHAR
STARTCHAR 0132
ENCODING 306
SWIDTH 840 0
DWIDTH 14 0
BBX 12 12 1 0
BITMAP
F1F0
F1F0
6060
6060
6060
6060
6060
6060
6060
6C60
FFE0
F7C0
ENDCHAR
STARTCHAR 0133
ENCODING 307
SWIDTH 540 0
DWIDTH 9 0
BBX 6 15 1 -3
BITMAP
CC
CC
00
CC
CC
CC
CC
CC
CC
CC
CC
CC
0C
3C
38
ENDCHAR
STARTCHAR 0134
ENCODING 308
SWIDTH 540 0
DWIDTH 9 0
BBX 7 13 0 0
BITMAP
0C
12
1E
1E
1E
0C
0C
0C
0C
0C
CC
FC
78
ENDCHAR
STARTCHAR 0135
ENCODING 309
SWIDTH 300 0
DWIDTH 5 0
BBX 5 15 -1 -3
BITMAP
30
48
00
30
30
30
30
30
30
30
30
30
30
F0
E0
ENDCHAR
STARTCHAR 0136
ENCODING 310
SWIDTH 660 0
DWIDTH 11 0
BBX 9 16 1 -4
BITMAP
C380
C780
CF00
DF00
DC00
F800
F000
F800
DC00
CF00
C780
C380
1800
1800
0800
1000
ENDCHAR
STARTCHAR 0137
ENCODING 311
SWIDTH 540 0
DWIDTH 9 0
BBX 7 16 0 -4
BITMAP
C0
C0
C0
C6
C6
CE
DC
F8
F8
DC
CE
C6
18
18
08
10
ENDCHAR
STARTCHAR 0138
ENCODING 312
SWIDTH 540 0
DWIDTH 9 0
BBX 7 9 0 0
BITMAP
C6
C6
CE
DC
F8
F8
DC
CE
C6
ENDCHAR
STARTCHAR 0139
ENCODING 313
SWIDTH 540 0
DWIDTH 9 0
BBX 6 13 1 0
BITMAP
10
20
C0
C0
C0
C0
C0
C0
C0
C0
C0
FC
FC
ENDCHAR
STARTCHAR 013A
ENCODING 314
SWIDTH 240 0
DWIDTH 4 0
BBX 2 13 1 0
BITMAP
40
80
C0
C0
C0
C0
C0
C0
C0
C0
C0
C0
C0
ENDCHAR
STARTCHAR 013B
ENCODING 315
SWIDTH 540 0
DWIDTH 9 0
BBX 6 16 1 -4
BITMAP
C0
C0
C0
C0
C0
C0
C0
C0
C0
C0
FC
FC
30
30
10
20
ENDCHAR
STARTCHAR 013C
ENCODING 316
SWIDTH 240 0
DWIDTH 4 0
BBX 2 16 1 -4
BITMAP
C0
C0
C0
C0
C0
C0
C0
C0
C0
C0
C0
00
C0
C0
40
80
ENDCHAR
STARTCHAR 013D
ENCODING 317
SWIDTH 540 0
DWIDTH 9 0
BBX 6 12 1 0
BITMAP
CC
CC
C4
CC
C8
C0
C0
C0
C0
C0
FC
FC
ENDCHAR
STARTCHAR 013E
ENCODING 318
SWIDTH 420 0
DWIDTH 7 0
BBX 5 13 1 0
BITMAP
18
D8
C8
D0
D0
C0
C0
C0
C0
C0
C0
C0
C0
ENDCHAR
STARTCHAR 013F
ENCODING 319
SWIDTH 540 0
DWIDTH 9 0
BBX 6 12 1 0
BITMAP
C0
C0
C0
C0
C0
D8
D8
C8
C0
C0
FC
FC
ENDCHAR
STARTCHAR 0140
ENCODING 320
SWIDTH 420 0
DWIDTH 7 0
BBX 5 12 1 0
BITMAP
C0
C0
C0
C0
C0
D8
D8
C0
C0
C0
C0
C0
ENDCHAR
STARTCHAR 0141
ENCODING 321
SWIDTH 540 0
DWIDTH 9 0
BBX 8 12 -1 0
BITMAP
30
36
3E
3E
3C
38
70
F0
F0
30
3F
3F
ENDCHAR
STARTCHAR 0142
ENCODING 322
SWIDTH 360 0
DWIDTH 6 0
BBX 6 12 -1 0
BITMAP
30
30
3C
3C
3C
38
70
F0
F0
30
30
30
ENDCHAR
STARTCHAR 0143
ENCODING 323
SWIDTH 720 0
DWIDTH 12 0
BBX 10 13 1 0
BITMAP
0400
C9C0
E1C0
F1C0
F9C0
F9C0
FDC0
DDC0
DFC0
CFC0
C7C0
C3C0
C1C0
ENDCHAR
STARTCHAR 0144
ENCODING 324
SWIDTH 540 0
DWIDTH 9 0
BBX 6 12 1 0
BITMAP
10
20
00
F8
F8
FC
CC
CC
CC
CC
CC
CC
ENDCHAR
STARTCHAR 0145
ENCODING 325
SWIDTH 720 0
DWIDTH 12 0
BBX 10 16 1 -4
BITMAP
C1C0
E1C0
F1C0
F9C0
F9C0
FDC0
DDC0
DFC0
CFC0
C7C0
C3C0
C1C0
0C00
0C00
0400
0800
ENDCHAR
STARTCHAR 0146
ENCODING 326
SWIDTH 540 0
DWIDTH 9 0
BBX 6 13 1 -4
BITMAP
F8
F8
FC
CC
CC
CC
CC
CC
CC
30
30
10
20
ENDCHAR
STARTCHAR 0147
ENCODING 327
SWIDTH 720 0
DWIDTH 12 0
BBX 10 13 1 0
BITMAP
1300
CDC0
E1C0
F1C0
F9C0
F9C0
FDC0
DDC0
DFC0
CFC0
C7C0
C3C0
C1C0
ENDCHAR
STARTCHAR 0148
ENCODING 328
SWIDTH 540 0
DWIDTH 9 0
BBX 6 12 1 0
BITMAP
48
30
00
F8
F8
FC
CC
CC
CC
CC
CC
CC
ENDCHAR
STARTCHAR 0149
ENCODING 329
SWIDTH 540 0
DWIDTH 9 0
BBX 8 13 -1 0
BITMAP
C0
C0
40
80
BE
3E
3F
33
33
33
33
33
33
ENDCHAR
STARTCHAR 014A
ENCODING 330
SWIDTH 720 0
DWIDTH 12 0
BBX 10 14 1 -2
BITMAP
C1C0
E1C0
F1C0
F9C0
F9C0
FDC0
DDC0
DFC0
CFC0
C7C0
C3C0
C1C0
07C0
0780
ENDCHAR
STARTCHAR 014B
ENCODING 331
SWIDTH 540 0
DWIDTH 9 0
BBX 6 12 1 -3
BITMAP
F8
F8
FC
CC
CC
CC
CC
CC
CC
0C
3C
38
ENDCHAR
STARTCHAR 014C
ENCODING 332
SWIDTH 720 0
DWIDTH 12 0
BBX 9 13 2 0
BITMAP
3E00
0000
7F00
FF80
FF80
C380
C380
C380
C380
C380
C380
FF80
7F00
ENDCHAR
STARTCHAR 014D
ENCODING 333
SWIDTH 540 0
DWIDTH 9 0
BBX 6 11 1 0
BITMAP
78
00
78
78
FC
CC
CC
CC
CC
FC
78
ENDCHAR
STARTCHAR 014E
ENCODING 334
SWIDTH 720 0
DWIDTH 12 0
BBX 9 13 2 0
BITMAP
2600
1800
7F00
FF80
FF80
C380
C380
C380
C380
C380
C380
FF80
7F00
ENDCHAR
STARTCHAR 014F
ENCODING 335
SWIDTH 540 0
DWIDTH 9 0
BBX 6 12 1 0
BITMAP
48
30
00
78
78
FC
CC
CC
CC
CC
FC
78
ENDCHAR
STARTCHAR 0150
ENCODING 336
SWIDTH 720 0
DWIDTH 12 0
BBX 9 13 2 0
BITMAP
1600
2800
7F00
FF80
FF80
C380
C380
C380
C380
C380
C380
FF80
7F00
ENDCHAR
STARTCHAR 0151
ENCODING 337
SWIDTH 540 0
DWIDTH 9 0
BBX 6 12 1 0
BITMAP
50
50
00
78
78
FC
CC
CC
CC
CC
FC
78
ENDCHAR
STARTCHAR 0152
ENCODING 338
SWIDTH 960 0
DWIDTH 16 0
BBX 15 12 0 0
BITMAP
7EFE
FFFE
C3E0
C3E0
C3E0
C3FE
C3FE
C3E0
C3E0
C3E0
FFFE
7EFE
ENDCHAR
STARTCHAR 0153
ENCODING 339
SWIDTH 840 0
DWIDTH 14 0
BBX 12 9 1 0
BITMAP
79E0
79E0
FFF0
CF30
CFF0
CF00
CF30
FFF0
7BE0
ENDCHAR
STARTCHAR 0154
ENCODING 340
SWIDTH 660 0
DWIDTH 11 0
BBX 9 13 1 0
BITMAP
0800
1000
FF00
FF80
FF80
C380
C380
FF80
FF00
C380
C380
C380
C380
ENDCHAR
STARTCHAR 0155
ENCODING 341
SWIDTH 540 0
DWIDTH 9 0
BBX 6 12 1 0
BITMAP
10
20
00
F8
F8
FC
CC
C0
C0
C0
C0
C0
ENDCHAR
STARTCHAR 0156
ENCODING 342
SWIDTH 660 0
DWIDTH 11 0
BBX 9 15 1 -4
BITMAP
FF00
FF80
FF80
C380
C380
FF80
FF00
C380
C380
C380
C380
0C00
0C00
0400
0800
ENDCHAR
STARTCHAR 0157
ENCODING 343
SWIDTH 540 0
DWIDTH 9 0
BBX 6 13 1 -4
BITMAP
F8
F8
FC
CC
C0
C0
C0
C0
C0
30
30
10
20
ENDCHAR
STARTCHAR 0158
ENCODING 344
SWIDTH 660 0
DWIDTH 11 0
BBX 9 13 1 0
BITMAP
2400
1800
FF00
FF80
FF80
C380
C380
FF80
FF00
C380
C380
C380
C380
ENDCHAR
STARTCHAR 0159
ENCODING 345
SWIDTH 540 0
DWIDTH 9 0
BBX 6 12 1 0
BITMAP
90
60
00
F8
F8
FC
CC
C0
C0
C0
C0
C0
ENDCHAR
STARTCHAR 015A
ENCODING 346
SWIDTH 660 0
DWIDTH 11 0
BBX 9 13 1 0
BITMAP
0800
1000
7F00
FF80
FF80
C380
C000
FF00
7F80
0380
C380
FF80
7F00
ENDCHAR
STARTCHAR 015B
ENCODING 347
SWIDTH 540 0
DWIDTH 9 0
BBX 6 12 1 0
BITMAP
10
20
00
7C
7C
FC
C0
F8
7C
0C
FC
F8
ENDCHAR
STARTCHAR 015C
ENCODING 348
SWIDTH 660 0
DWIDTH 11 0
BBX 9 13 1 0
BITMAP
1800
2400
7F00
FF80
FF80
C380
C000
FF00
7F80
0380
C380
FF80
7F00
ENDCHAR
STARTCHAR 015D
ENCODING 349
SWIDTH 540 0
DWIDTH 9 0
BBX 6 12 1 0
BITMAP
30
48
00
7C
7C
FC
C0
F8
7C
0C
FC
F8
ENDCHAR
STARTCHAR 015E
ENCODING 350
SWIDTH 660 0
DWIDTH 11 0
BBX 9 15 1 -4
BITMAP
7F00
FF80
FF80
C380
C000
FF00
7F80
0380
C380
FF80
7F00
1C00
0C00
1C00
1800
ENDCHAR
STARTCHAR 015F
ENCODING 351
SWIDTH 540 0
DWIDTH 9 0
BBX 6 13 1 -4
BITMAP
7C
7C
FC
C0
F8
7C
0C
FC
F8
38
18
38
30
ENDCHAR
STARTCHAR 0160
ENCODING 352
SWIDTH 660 0
DWIDTH 11 0
BBX 9 13 1 0
BITMAP
2400
1800
7F00
FF80
FF80
C380
C000
FF00
7F80
0380
C380
FF80
7F00
ENDCHAR
STARTCHAR 0161
ENCODING 353
SWIDTH 540 0
DWIDTH 9 0
BBX 6 12 1 0
BITMAP
48
30
00
7C
7C
FC
C0
F8
7C
0C
FC
F8
ENDCHAR
STARTCHAR 0162
ENCODING 354
SWIDTH 660 0
DWIDTH 11 0
BBX 9 16 1 -4
BITMAP
FF80
FF80
1800
1800
1800
1800
1800
1800
1800
1800
1800
1800
3800
1800
3800
3000
ENDCHAR
STARTCHAR 0163
ENCODING 355
SWIDTH 300 0
DWIDTH 5 0
BBX 4 16 0 -4
BITMAP
60
60
60
F0
F0
F0
60
60
60
60
70
30
70
30
70
60
ENDCHAR
STARTCHAR 0164
ENCODING 356
SWIDTH 660 0
DWIDTH 11 0
BBX 9 13 1 0
BITMAP
2400
1800
FF80
FF80
FF80
1800
1800
1800
1800
1800
1800
1800
1800
ENDCHAR
STARTCHAR 0165
ENCODING 357
SWIDTH 420 0
DWIDTH 7 0
BBX 6 13 0 0
BITMAP
0C
6C
64
68
F8
F0
F0
60
60
60
60
70
30
ENDCHAR
STARTCHAR 0166
ENCODING 358
SWIDTH 660 0
DWIDTH 11 0
BBX 9 12 1 0
BITMAP
FF80
FF80
1800
1800
1800
1800
7F00
7F00
1800
1800
1800
1800
ENDCHAR
STARTCHAR 0167
ENCODING 359
SWIDTH 300 0
DWIDTH 5 0
BBX 4 12 0 0
BITMAP
60
60
60
F0
F0
F0
60
F0
F0
60
70
30
ENDCHAR
STARTCHAR 0168
ENCODING 360
SWIDTH 720 0
DWIDTH 12 0
BBX 9 13 2 0
BITMAP
1600
2800
C380
C380
C380
C380
C380
C380
C380
C380
C380
FF80
7F00
ENDCHAR
STARTCHAR 0169
ENCODING 361
SWIDTH 540 0
DWIDTH 9 0
BBX 6 12 1 0
BITMAP
28
50
00
CC
CC
CC
CC
CC
CC
CC
FC
7C
ENDCHAR
STARTCHAR 016A
ENCODING 362
SWIDTH 720 0
DWIDTH 12 0
BBX 9 13 2 0
BITMAP
3E00
0000
C380
C380
C380
C380
C380
C380
C380
C380
C380
FF80
7F00
ENDCHAR
STARTCHAR 016B
ENCODING 363
SWIDTH 540 0
DWIDTH 9 0
BBX 6 11 1 0
BITMAP
78
00
CC
CC
CC
CC
CC
CC
CC
FC
7C
ENDCHAR
STARTCHAR 016C
ENCODING 364
SWIDTH 720 0
DWIDTH 12 0
BBX 9 13 2 0
BITMAP
2600
1800
C380
C380
C380
C380
C380
C380
C380
C380
C380
FF80
7F00
ENDCHAR
STARTCHAR 016D
ENCODING 365
SWIDTH 540 0
DWIDTH 9 0
BBX 6 12 1 0
BITMAP
48
30
00
CC
CC
CC
CC
CC
CC
CC
FC
7C
ENDCHAR
STARTCHAR 016E
ENCODING 366
SWIDTH 720 0
DWIDTH 12 0
BBX 9 13 2 0
BITMAP
1800
2600
DB80
C380
C380
C380
C380
C380
C380
C380
C380
FF80
7F00
ENDCHAR
STARTCHAR 016F
ENCODING 367
SWIDTH 540 0
DWIDTH 9 0
BBX 6 12 1 0
BITMAP
30
48
30
FC
CC
CC
CC
CC
CC
CC
FC
7C
ENDCHAR
STARTCHAR 0170
ENCODING 368
SWIDTH 720 0
DWIDTH 12 0
BBX 9 13 2 0
BITMAP
1600
2800
C380
C380
C380
C380
C380
C380
C380
C380
C380
FF80
7F00
ENDCHAR
STARTCHAR 0171
ENCODING 369
SWIDTH 540 0
DWIDTH 9 0
BBX 6 12 1 0
BITMAP
50
50
00
CC
CC
CC
CC
CC
CC
CC
FC
7C
ENDCHAR
STARTCHAR 0172
ENCODING 370
SWIDTH 720 0
DWIDTH 12 0
BBX 9 16 2 -4
BITMAP
C380
C380
C380
C380
C380
C380
C380
C380
C380
C380
FF80
7F00
1E00
0E00
1E00
1800
ENDCHAR
STARTCHAR 0173
ENCODING 371
SWIDTH 540 0
DWIDTH 9 0
BBX 6 13 1 -4
BITMAP
CC
CC
CC
CC
CC
CC
CC
FC
7C
1C
0C
1C
18
ENDCHAR
STARTCHAR 0174
ENCODING 372
SWIDTH 780 0
DWIDTH 13 0
BBX 11 13 1 0
BITMAP
0C00
1300
C060
C060
C060
C060
CC60
CC60
CC60
CC60
FFE0
7FC0
3380
ENDCHAR
STARTCHAR 0175
ENCODING 373
SWIDTH 780 0
DWIDTH 13 0
BBX 11 12 1 0
BITMAP
0C00
1300
0000
CC60
CC60
CC60
CC60
CC60
CC60
CC60
FFE0
7FE0
ENDCHAR
STARTCHAR 0176
ENCODING 374
SWIDTH 660 0
DWIDTH 11 0
BBX 9 13 1 0
BITMAP
1800
2400
C380
E780
E780
6700
7F00
3C00
1800
1800
1800
1800
1800
ENDCHAR
STARTCHAR 0177
ENCODING 375
SWIDTH 540 0
DWIDTH 9 0
BBX 6 15 1 -3
BITMAP
30
48
00
CC
CC
CC
CC
CC
CC
CC
FC
78
38
F0
E0
ENDCHAR
STARTCHAR 0178
ENCODING 376
SWIDTH 660 0
DWIDTH 11 0
BBX 9 13 1 0
BITMAP
2400
0000
C380
E780
E780
6700
7F00
3C00
1800
1800
1800
1800
1800
ENDCHAR
STARTCHAR 0179
ENCODING 377
SWIDTH 720 0
DWIDTH 12 0
BBX 11 13 0 0
BITMAP
0400
0800
FFE0
FFE0
FFE0
03C0
0780
0E00
1C00
3800
7000
FFE0
FFE0
ENDCHAR
STARTCHAR 017A
ENCODING 378
SWIDTH 540 0
DWIDTH 9 0
BBX 6 12 1 0
BITMAP
10
20
00
FC
FC
FC
18
30
30
60
FC
FC
ENDCHAR
STARTCHAR 017B
ENCODING 379
SWIDTH 720 0
DWIDTH 12 0
BBX 11 13 0 0
BITMAP
0800
0400
FFE0
FFE0
FFE0
03C0
0780
0E00
1C00
3800
7000
FFE0
FFE0
ENDCHAR
STARTCHAR 017C
ENCODING 380
SWIDTH 540 0
DWIDTH 9 0
BBX 6 12 1 0
BITMAP
20
10
00
FC
FC
FC
18
30
30
60
FC
FC
ENDCHAR
STARTCHAR 017D
ENCODING 381
SWIDTH 720 0
DWIDTH 12 0
BBX 11 13 0 0
BITMAP
1200
0C00
FFE0
FFE0
FFE0
03C0
0780
0E00
1C00
3800
7000
FFE0
FFE0
ENDCHAR
STARTCHAR 017E
ENCODING 382
SWIDTH 540 0
DWIDTH 9 0
BBX 6 12 1 0
BITMAP
48
30
00
FC
FC
FC
18
30
30
60
FC
FC
ENDCHAR
STARTCHAR 20AC
ENCODING 8364
SWIDTH 660 0
DWIDTH 11 0
BBX 9 12 1 0
BITMAP
1F00
3F80
7380
FF80
FC00
FC00
6000
FC00
FC00
7380
3F80
1F00
ENDCHAR
STARTCHAR 3000
ENCODING 12288
SWIDTH 1020 0
DWIDTH 17 0
BBX 0 0 0 0
BITMAP
ENDCHAR
ENDFONT
